<?xml version="1.0" encoding="utf-8"?>
<!-- Generator: Adobe Illustrator 22.1.0, SVG Export Plug-In . SVG Version: 6.00 Build 0)  -->
<svg version="1.1" id="Layer_1" xmlns="http://www.w3.org/2000/svg" xmlns:xlink="http://www.w3.org/1999/xlink" x="0px" y="0px"
	 viewBox="0 0 1000 200" style="enable-background:new 0 0 1000 200;" xml:space="preserve">
<style type="text/css">
	.st0{fill:#FFFFFF;}
</style>
<g>
	<path d="M176,100.1c0,40.6-31.4,81.3-93.8,81.3H23.7v-2.3c9.8,0,16-9.1,16-23.9V45.1c0-14.9-6.3-23.9-16-23.9v-2.3h58.5
		C144.7,18.8,176,59.5,176,100.1z M81.7,179.3c47.1,0,70.8-39.7,70.8-78.7c0-39.5-23.9-79.7-71.1-79.7H61.8v158.4H81.7z"/>
</g>
<g>
	<path d="M186.7,150.1c-1.6,3.3-2.3,6.3-2.3,8.6c0,7.9,3,20.4,14.6,20.4h1.2v2.3H153v-2.3c10.9,0,24.2-13.7,28.3-22.8l11.8-25.5
		h-16.5v-2.1H194l42.7-93.8l-7-16h23.9L317,164.5c2.6,5.8,10.7,14.6,17.4,14.6v2.3H284v-2.3h0.7c5.8,0,7.9-3,7.9-7.2
		c0-3.3-0.9-7-2.6-10.5L237.6,37l-41.3,91.7h63.6v2.1h-64.6L186.7,150.1z"/>
</g>
<g>
	<path d="M330.9,56l7.7-37.2H454l-96.9,159.3h36.2c35.8,0,52.7-16.5,64.6-38.6h0.9L446,181.3H329.8l98-159.8h-0.5l-45.1,0.2
		c-17.2,0-34.6,2.3-50.4,34.1h-0.9V56z"/>
</g>
<g>
	<path d="M459.8,56l7.7-37.2h115.4L486,178.1h36.2c35.8,0,52.7-16.5,64.6-38.6h0.9L575,181.4H458.7l98-159.8h-0.5l-45.1,0.2
		c-17.2,0-34.6,2.3-50.4,34.1h-0.9V56z"/>
</g>
<g>
	<path d="M599,155.2V45.1c0-14.9-6.3-23.9-16-23.9v-2.3h54.1v2.3c-9.8,0-16,9.1-16,23.9v134.2H668c21.1,0,38.3-33.7,42.5-55h1.4
		l-8.1,57.1H582.9v-2.3C592.7,179.1,599,170,599,155.2z"/>
</g>
<g>
	<path d="M832.8,124.3l-8.1,57.1H703.9v-2.3c9.8,0,16-9.1,16-23.9V45.1c0-14.9-6.3-23.9-16-23.9v-2.3h114.7l7.9,36h-1.4
		C818.6,34.2,807,21,785.6,21H742v158.4h46.9c21.1,0,38.3-33.7,42.5-55L832.8,124.3L832.8,124.3z M784.1,125.5h-1.4v-11.8
		c0-9.3-5.6-15.3-13.9-15.3h-1.4V97h1.4c8.4,0,13.9-6.3,13.9-15.3v-12h1.4v11.8c0,9.1,5.6,15.3,13.9,15.3h2.6v1.4H798
		c-8.4,0-13.9,6-13.9,15.3V125.5z"/>
</g>
<g>
	<path d="M977.3,100.1c0,40.6-31.4,81.3-93.8,81.3H825v-2.3c9.8,0,16-9.1,16-23.9V45.1c0-14.9-6.3-23.9-16-23.9v-2.3h58.5
		C946,18.8,977.3,59.5,977.3,100.1z M883,179.3c47.1,0,70.8-39.7,70.8-78.7c0-39.5-23.9-79.7-71.1-79.7H863v158.4H883z"/>
</g>
<g>
	<path d="M861.5,20.5v159.3c0,0,39.1,6.5,67.8-10.3c17.7-10.4,30.3-31.4,30.3-63C959.4,69.3,944,42,922.3,30
		C895.6,15.3,861.5,20.5,861.5,20.5z"/>
</g>
<g>
	<path class="st0" d="M881.2,46.2l-4,4.3v3.4c0,1.9,0.8,3,2,3h0v0.3h-6.9v-0.3h0c1.2,0,2-1.1,2-3V40c0-1.9-0.8-3-2-3h0v-0.3h6.9V37
		h0c-1.2,0-2,1.1-2,3v10.2L881,46l-1.3-1.8h3l2.9-3.2c1-1.1,2.7-4.1-0.6-4.1v-0.2h6.5l0,0.2c-1.7,0-3.6,2-5.9,4.4l-2.8,3L891,55
		c0.5,0.6,1.4,1.8,2.3,1.8h-0.1v0.3h-3.9L881.2,46.2z"/>
	<path class="st0" d="M873.3,71.9c0-5.3,3.5-10.5,10.6-10.5c7.3,0,10.9,5.2,10.9,10.4c0,5.3-3.7,10.6-10.9,10.6
		C876.9,82.4,873.3,77.1,873.3,71.9z M876,70.3c0,5.5,3.3,11.6,8.9,11.6c5.1,0,7.3-4.1,7.3-8.4c0-5.5-3.6-11.8-9.4-11.8
		C878.1,61.8,876,65.9,876,70.3z M884.1,75.4h-0.2v-1.5c0-1.2-0.7-1.9-1.7-1.9H882v-0.2h0.2c1.1,0,1.7-0.8,1.7-1.9v-1.5h0.2v1.5
		c0,1.1,0.7,1.9,1.7,1.9h0.3V72h-0.3c-1,0-1.7,0.8-1.7,1.9V75.4z"/>
	<path class="st0" d="M872.4,87v-0.3h7.6c10.2,0,10.7,7.9,3.9,9.6l6.4,8.7c0.5,0.6,1.4,1.8,2.3,1.8h-0.1v0.3h-4l-7.3-10.5h-4v7.2
		c0,1.9,0.8,3,2,3h0v0.3h-6.9v-0.3h0c1.2,0,2-1.1,2-3V90C874.4,88.1,873.6,87,872.4,87L872.4,87z M881.2,96.3c4.8,0,7.6-9.4-1.2-9.4
		h-2.7v9.4H881.2z"/>
	<path class="st0" d="M888.6,124.9l-1,7.2h-15.2v-0.3c1.2,0,2-1.1,2-3V115c0-1.9-0.8-3-2-3v-0.3h14.4l1,4.5h-0.2
		c-0.8-2.6-2.3-4.3-5-4.3h-5.5v19.9h5.9c2.7,0,4.8-4.2,5.3-6.9H888.6z M882.5,125.1h-0.2v-1.5c0-1.2-0.7-1.9-1.8-1.9h-0.2v-0.2h0.2
		c1.1,0,1.8-0.8,1.8-1.9v-1.5h0.2v1.5c0,1.1,0.7,1.9,1.8,1.9h0.3v0.2h-0.3c-1,0-1.8,0.8-1.8,1.9V125.1z"/>
	<path class="st0" d="M882.8,139l-6.4,14.2c-0.2,0.4-0.3,0.8-0.3,1.1c0,1,0.4,2.6,1.8,2.6h0.1v0.3h-5.9v-0.3c1.4,0,3-1.7,3.6-2.9
		l7-15.3l-0.9-2h3l8,18.3c0.3,0.7,1.3,1.8,2.2,1.8v0.3h-6.3v-0.3h0.1c0.7,0,1-0.4,1-0.9c0-0.4-0.1-0.9-0.3-1.3L882.8,139z
		 M882.5,154.8h-0.2v-1.5c0-1.2-0.7-1.9-1.8-1.9h-0.2v-0.2h0.2c1.1,0,1.8-0.8,1.8-2v-1.5h0.2v1.5c0,1.2,0.7,2,1.8,2h0.3v0.2h-0.3
		c-1,0-1.8,0.8-1.8,1.9V154.8z"/>
</g>
</svg>
