<?xml version="1.0" encoding="utf-8"?>
<!-- Generator: Adobe Illustrator 22.1.0, SVG Export Plug-In . SVG Version: 6.00 Build 0)  -->
<svg version="1.1" id="Layer_1" xmlns="http://www.w3.org/2000/svg" xmlns:xlink="http://www.w3.org/1999/xlink" x="0px" y="0px"
	 viewBox="0 0 1000 200" style="enable-background:new 0 0 1000 200;" xml:space="preserve">
<style type="text/css">
	.st0{fill:#FFFFFF;}
</style>
<g>
	<g>
		<path class="st0" d="M176,100.1c0,40.6-31.4,81.3-93.8,81.3H23.7v-2.3c9.8,0,16-9.1,16-23.9V45.1c0-14.9-6.3-23.9-16-23.9v-2.3
			h58.5C144.7,18.8,176,59.5,176,100.1z M81.7,179.3c47.1,0,70.8-39.7,70.8-78.7c0-39.5-23.9-79.7-71.1-79.7H61.8v158.4H81.7z"/>
	</g>
	<g>
		<path class="st0" d="M186.7,150.1c-1.6,3.3-2.3,6.3-2.3,8.6c0,7.9,3,20.4,14.6,20.4h1.2v2.3H153v-2.3c10.9,0,24.2-13.7,28.3-22.8
			l11.8-25.5h-16.5v-2.1H194l42.7-93.8l-7-16h23.9L317,164.5c2.6,5.8,10.7,14.6,17.4,14.6v2.3H284v-2.3h0.7c5.8,0,7.9-3,7.9-7.2
			c0-3.3-0.9-7-2.6-10.5L237.6,37l-41.3,91.7h63.6v2.1h-64.6L186.7,150.1z"/>
	</g>
	<g>
		<path class="st0" d="M330.9,56l7.7-37.2H454l-96.9,159.3h36.2c35.8,0,52.7-16.5,64.6-38.6h0.9L446,181.3H329.8l98-159.8h-0.5
			l-45.1,0.2c-17.2,0-34.6,2.3-50.4,34.1h-0.9V56z"/>
	</g>
	<g>
		<path class="st0" d="M459.8,56l7.7-37.2h115.4L486,178.1h36.2c35.8,0,52.7-16.5,64.6-38.6h0.9L575,181.4H458.7l98-159.8h-0.5
			l-45.1,0.2c-17.2,0-34.6,2.3-50.4,34.1h-0.9L459.8,56L459.8,56z"/>
	</g>
	<g>
		<path class="st0" d="M599,155.2V45.1c0-14.9-6.3-23.9-16-23.9v-2.3h54.1v2.3c-9.8,0-16,9.1-16,23.9v134.2H668
			c21.1,0,38.3-33.7,42.5-55h1.4l-8.1,57.1H582.9v-2.3C592.7,179.1,599,170,599,155.2z"/>
	</g>
	<g>
		<path class="st0" d="M832.8,124.3l-8.1,57.1H703.9v-2.3c9.8,0,16-9.1,16-23.9V45.1c0-14.9-6.3-23.9-16-23.9v-2.3h114.7l7.9,36
			h-1.4C818.6,34.2,807,21,785.6,21H742v158.4h46.9c21.1,0,38.3-33.7,42.5-55L832.8,124.3L832.8,124.3z M784.1,125.5h-1.4v-11.8
			c0-9.3-5.6-15.3-13.9-15.3h-1.4V97h1.4c8.4,0,13.9-6.3,13.9-15.3v-12h1.4v11.8c0,9.1,5.6,15.3,13.9,15.3h2.6v1.4H798
			c-8.4,0-13.9,6-13.9,15.3V125.5z"/>
	</g>
	<g>
		<path class="st0" d="M977.3,100.1c0,40.6-31.4,81.3-93.8,81.3H825v-2.3c9.8,0,16-9.1,16-23.9V45.1c0-14.9-6.3-23.9-16-23.9v-2.3
			h58.5C946,18.8,977.3,59.5,977.3,100.1z M883,179.3c47.1,0,70.8-39.7,70.8-78.7c0-39.5-23.9-79.7-71.1-79.7H863v158.4H883z"/>
	</g>
</g>
<g>
	<path class="st0" d="M854,19l4.5,159.8c0,0,29.1,3.9,53.8-4c27.6-8.8,50.9-30.9,50.5-61.3C962,57.3,940.9,13.4,863.5,20
		c-1.7,0.1-3.5,0.3-5.2,0.5"/>
</g>
<g>
	<path d="M874.5,49.3l-4.9,5.3v4.2c0,2.3,1,3.7,2.5,3.7h0v0.4h-8.5v-0.4h0c1.5,0,2.5-1.4,2.5-3.7V41.6c0-2.3-1-3.7-2.5-3.7h0v-0.4
		h8.5v0.4h0c-1.5,0-2.5,1.4-2.5,3.7v12.7l4.8-5.2l-1.6-2.3h3.7l3.6-3.9c1.2-1.3,3.3-5.1-0.7-5.1v-0.3h8.1l0,0.3
		c-2.1,0-4.5,2.5-7.4,5.5l-3.5,3.7l10.1,13.2c0.6,0.8,1.7,2.3,2.8,2.3h-0.1v0.4h-4.9L874.5,49.3z"/>
	<path d="M864.7,76.2c0-6.5,4.4-13.1,13.2-13.1c9.1,0,13.6,6.5,13.6,13c0,6.6-4.6,13.2-13.6,13.2C869.1,89.3,864.7,82.7,864.7,76.2z
		 M868.1,74.2c0,6.8,4.1,14.5,11.1,14.5c6.4,0,9.1-5.1,9.1-10.5c0-6.8-4.5-14.7-11.7-14.7C870.7,63.6,868.1,68.8,868.1,74.2z
		 M878.1,80.5h-0.3v-1.9c0-1.5-0.8-2.4-2.1-2.4h-0.2v-0.2h0.2c1.3,0,2.1-1,2.1-2.4v-1.9h0.3v1.9c0,1.4,0.9,2.4,2.1,2.4h0.4v0.2h-0.4
		c-1.3,0-2.1,0.9-2.1,2.4V80.5z"/>
	<path d="M863.6,89.8v-0.4h9.4c12.7,0,13.3,9.9,4.9,11.9l7.9,10.9c0.6,0.8,1.7,2.3,2.8,2.3h-0.1v0.4h-4.9l-9.1-13.1h-4.9v9
		c0,2.3,1,3.7,2.5,3.7h0v0.4h-8.5v-0.4h0c1.5,0,2.5-1.4,2.5-3.7V93.5C866.1,91.2,865.1,89.8,863.6,89.8L863.6,89.8z M874.5,101.4
		c6,0,9.5-11.7-1.5-11.7h-3.4v11.7H874.5z"/>
	<path d="M883.8,131.9l-1.3,8.9h-18.9v-0.4c1.5,0,2.5-1.4,2.5-3.7v-17.2c0-2.3-1-3.7-2.5-3.7v-0.4h18l1.2,5.6h-0.2
		c-1-3.2-2.8-5.3-6.2-5.3h-6.8v24.8h7.3c3.3,0,6-5.3,6.7-8.6H883.8z M876.1,132.1h-0.2v-1.9c0-1.5-0.9-2.4-2.2-2.4h-0.2v-0.2h0.2
		c1.3,0,2.2-1,2.2-2.4v-1.9h0.2v1.9c0,1.4,0.9,2.4,2.2,2.4h0.4v0.2h-0.4c-1.3,0-2.2,0.9-2.2,2.4V132.1z"/>
	<path d="M868.6,161.9c-0.3,0.5-0.4,1-0.4,1.3c0,1.2,0.5,3.2,2.3,3.2h0.2v0.4h-7.4v-0.4c1.7,0,3.8-2.1,4.4-3.6l1.9-4H867v-0.3h2.7
		l6.7-14.7l-1.1-2.5h3.7l9.9,22.8c0.4,0.9,1.7,2.3,2.7,2.3v0.4h-7.9v-0.4h0.1c0.9,0,1.2-0.5,1.2-1.1c0-0.5-0.1-1.1-0.4-1.6
		l-8.3-19.5l-6.5,14.4h10v0.3h-10.1L868.6,161.9z"/>
</g>
</svg>
